<svg xmlns="http://www.w3.org/2000/svg" viewBox="10 4 44 56" role="img" aria-label="ARTEN">
  <defs>
    <linearGradient id="leaf" x1="32" y1="6" x2="32" y2="54" gradientUnits="userSpaceOnUse">
      <stop offset="0%" stop-color="#8BC34A"/>
      <stop offset="55%" stop-color="#558B2F"/>
      <stop offset="100%" stop-color="#33691E"/>
    </linearGradient>
    <linearGradient id="vein" x1="32" y1="10" x2="32" y2="50" gradientUnits="userSpaceOnUse">
      <stop offset="0%" stop-color="#DCEDC8"/>
      <stop offset="100%" stop-color="#AED581"/>
    </linearGradient>
  </defs>
  <path fill="url(#leaf)" d="M32 6c-1.5 7.8-5.8 13.8-12.2 17.8-3.6 2.2-7.4 3.6-11.2 4.2 4.2.8 8.6.4 12.6-1.2 4.8-1.8 8.8-4.6 11.8-8.2V6zm0 0c1.5 7.8 5.8 13.8 12.2 17.8 3.6 2.2 7.4 3.6 11.2 4.2-4.2.8-8.6.4-12.6-1.2-4.8-1.8-8.8-4.6-11.8-8.2V6z"/>
  <path fill="url(#leaf)" d="M32 8c-7.2 5.8-11.8 14.2-13.4 24.2-1 6.4-.6 12.2 1.2 17.2 3.8-4.4 6.6-10 8.2-16.4 2-8.2 2.4-16.2 4-24.8zm0 0c7.2 5.8 11.8 14.2 13.4 24.2 1 6.4.6 12.2-1.2 17.2-3.8-4.4-6.6-10-8.2-16.4-2-8.2-2.4-16.2-4-24.8z"/>
  <path fill="none" stroke="url(#vein)" stroke-width="1.5" stroke-linecap="round" d="M32 10v36"/>
  <path fill="none" stroke="url(#vein)" stroke-width="1" stroke-linecap="round" d="M32 16c-5.5 3.8-9.2 8-11.2 12.8M32 22c-4.8 3-8 6.5-9.6 10.5M32 28c-3.8 2.2-6.4 5-7.8 8.2"/>
  <path fill="none" stroke="url(#vein)" stroke-width="1" stroke-linecap="round" d="M32 16c5.5 3.8 9.2 8 11.2 12.8M32 22c4.8 3 8 6.5 9.6 10.5M32 28c3.8 2.2 6.4 5 7.8 8.2"/>
  <path fill="#795548" d="M30.8 48.5c-.6 1.8-.9 3.8-.7 6 .2 1.8.9 3.3 2.1 4.4 1.2-1.1 1.9-2.6 2.1-4.4.2-2.2-.1-4.2-.7-6-.4-1.1-1.2-1.7-2.4-1.7s-2 .6-2.4 1.7z"/>
</svg>
