<svg xmlns="http://www.w3.org/2000/svg" viewBox="4 0 56 76" role="img" aria-label="ARTEN">
  <defs>
    <linearGradient id="leaf-base" x1="32" y1="0" x2="32" y2="66" gradientUnits="userSpaceOnUse">
      <stop offset="0%" stop-color="#C5DE96"/>
      <stop offset="22%" stop-color="#8FB958"/>
      <stop offset="55%" stop-color="#5E9A48"/>
      <stop offset="100%" stop-color="#2F6538"/>
    </linearGradient>
    <radialGradient id="leaf-glow" cx="34" cy="24" r="28" gradientUnits="userSpaceOnUse">
      <stop offset="0%" stop-color="#EEF4D6" stop-opacity="0.95"/>
      <stop offset="55%" stop-color="#C9DE98" stop-opacity="0.25"/>
      <stop offset="100%" stop-color="#C9DE98" stop-opacity="0"/>
    </radialGradient>
    <linearGradient id="vein-color" x1="32" y1="6" x2="32" y2="62" gradientUnits="userSpaceOnUse">
      <stop offset="0%" stop-color="#F7FAED"/>
      <stop offset="100%" stop-color="#B8D48A"/>
    </linearGradient>
    <linearGradient id="stem-color" x1="32" y1="64" x2="32" y2="74" gradientUnits="userSpaceOnUse">
      <stop offset="0%" stop-color="#9A7B62"/>
      <stop offset="100%" stop-color="#5D4037"/>
    </linearGradient>
  </defs>

  <!-- Birch leaf: pointed tip, broad middle, serrated margins -->
  <path fill="url(#leaf-base)" d="
    M32 1
    L30 4 31 6 29 8 30 10 28 12 29 14 27 16 28 18 26 20 27 22 25 24 26 26 24 28 25 30 23 32 24 34 22 36 23 38 21 40 22 42 20 44 21 46 19 48 20 50 18 52 19 54 17 56 18 58 20 59 22 60 24 61 27 62 29 63 32 64
    35 63 37 62 40 61 42 60 44 59 46 58 47 56 45 54 46 52 44 50 45 48 43 46 44 44 42 42 43 40 41 38 42 36 40 34 41 32 39 30 40 28 38 26 39 24 37 22 38 20 36 18 37 16 35 14 36 12 34 10 35 8 33 6 34 4 32 1Z"/>

  <path fill="url(#leaf-glow)" d="
    M32 1
    L30 4 31 6 29 8 30 10 28 12 29 14 27 16 28 18 26 20 27 22 25 24 26 26 24 28 25 30 23 32 24 34 22 36 23 38 21 40 22 42 20 44 21 46 19 48 20 50 18 52 19 54 17 56 18 58 20 59 22 60 24 61 27 62 29 63 32 64
    35 63 37 62 40 61 42 60 44 59 46 58 47 56 45 54 46 52 44 50 45 48 43 46 44 44 42 42 43 40 41 38 42 36 40 34 41 32 39 30 40 28 38 26 39 24 37 22 38 20 36 18 37 16 35 14 36 12 34 10 35 8 33 6 34 4 32 1Z"/>

  <path fill="none" stroke="#245832" stroke-opacity="0.16" stroke-width="0.7" stroke-linejoin="round"
    d="M32 1 29 8 27 16 25 24 23 32 21 40 19 48 18 56 24 61 32 64 40 61 46 56 45 48 43 40 41 32 39 24 37 16 35 8 32 1"/>

  <path fill="none" stroke="url(#vein-color)" stroke-width="1.2" stroke-linecap="round" d="M32 6v56"/>
  <path fill="none" stroke="url(#vein-color)" stroke-width="0.65" stroke-linecap="round"
    d="M32 12 C24 16 18 20 14 26 M32 20 C26 24 21 28 17 34 M32 28 C27 32 22 36 18 42 M32 36 C28 40 24 44 21 48 M32 44 C29 47 26 50 24 53"/>
  <path fill="none" stroke="url(#vein-color)" stroke-width="0.65" stroke-linecap="round"
    d="M32 12 C40 16 46 20 50 26 M32 20 C38 24 43 28 47 34 M32 28 C37 32 42 36 46 42 M32 36 C36 40 40 44 43 48 M32 44 C35 47 38 50 40 53"/>

  <path fill="url(#stem-color)" d="M30.4 63.2c-.35 1.7-.55 3.5-.35 5.3.12 1.35.7 2.55 1.95 3.25 1.25-.7 1.83-1.9 1.95-3.25.2-1.8-.05-3.6-.35-5.3-.35-1.05-.95-1.55-2.05-1.55-1.1 0-1.7.5-2.05 1.55z"/>
</svg>
